<svg width="1050" height="1050" viewBox="0 0 1050 1050" fill="none" xmlns="http://www.w3.org/2000/svg">
<path d="M306 91L305 92H303L302 93H300L299 94H298L297 95H296L295 96H294L292 98H291L285 104V105L283 107V108L281 110V111L280 112V114L279 115V117L278 118V121L277 122V134L278 135V138L279 139V141L280 142V143L281 144V145L282 146V147L283 148V149L286 152V153L289 156H290L293 159H294L295 160H296L297 161H298L299 162H300L301 163H303L304 164H308L309 165H318L319 164H323L324 163H326L327 162H328L329 161H331L333 159H334L336 157H337L343 151V150L345 148V147L346 146V145L347 144V143L348 142V141L349 140V138L350 137V134L351 133V121L350 120V117L349 116V114L348 113V112L347 111V110L346 109V108L344 106V105L336 97H335L333 95H332L331 94H329L328 93H327L326 92H323L322 91H306Z" fill="black"/>
<path d="M702 798L701 799H700L699 800H698L697 801H696L695 802H694L688 808V809L687 810V811L686 812V813L685 814V817L684 818V827L685 828V830L686 831V833L687 834V835L688 836V837L693 842H694L696 844H697L698 845H699L700 846H702L703 847H714L715 846H717L718 845H719L720 844H721L722 843H723L729 837V836L730 835V834L731 833V832L732 831V829L733 828V817L732 816V814L731 813V812L730 811V810L729 809V808L723 802H722L721 801H720L719 800H718L717 799H715L714 798H702Z" fill="black"/>
<path d="M552 786L551 787H545L544 788H540L539 789H536L535 790H532L531 791H529L528 792H526L525 793H524L523 794H522L521 795H520L519 796H518L517 797H516L515 798H514L512 800H511L509 802H508L505 805H504L499 810H498L496 812V813L490 819V820L487 823V824L485 826V827L483 829V830L482 831V832L481 833V834L480 835V836L479 837V839L478 840V841L477 842V843L476 844V847L475 848V850L474 851V854L473 855V859L472 860V871L471 872V877L472 878V887L473 888V892L474 893V896L475 897V900L476 901V903L477 904V906L478 907V908L479 909V910L480 911V913L481 914V915L482 916V917L484 919V920L485 921V922L487 924V925L490 928V929L495 934V935L499 939H500L506 945H507L509 947H510L512 949H513L515 951H516L517 952H518L519 953H520L521 954H522L523 955H524L525 956H526L527 957H529L530 958H531L532 959H535L536 960H538L539 961H543L544 962H548L549 963H572L573 962H577L578 961H582L583 960H585L586 959H588L589 958H591L592 957H593L594 956H595L596 955H598L600 953H602L604 951H605L607 949H608L610 947H611L614 944H615L629 930V929L632 926V925L634 923V922L636 920V919L637 918V917L638 916V915L639 914V913L640 912V911L641 910V909L642 908V907L643 906V904L644 903V901L645 900V897L646 896V893L647 892V887L648 886V863L647 862V857L646 856V853L645 852V849L644 848V846L643 845V843L642 842V841L641 840V838L640 837V836L639 835V834L638 833V832L637 831V830L635 828V827L633 825V824L631 822V821L627 817V816L617 806H616L613 803H612L609 800H608L607 799H606L604 797H603L602 796H601L600 795H599L598 794H596L595 793H594L593 792H591L590 791H589L588 790H585L584 789H581L580 788H576L575 787H569L568 786H552Z" fill="black"/>
<path d="M426 751L425 752H421L420 753H418L417 754H416L415 755H414L413 756H412L411 757H410L408 759H407L400 766V767L398 769V770L397 771V772L396 773V774L395 775V777L394 778V781L393 782V787L392 788V793L393 794V799L394 800V803L395 804V806L396 807V808L397 809V810L399 812V813L401 815V816L406 821H407L409 823H410L412 825H413L414 826H415L416 827H418L419 828H421L422 829H427L428 830H434L435 829H440L441 828H443L444 827H446L447 826H448L449 825H450L451 824H452L454 822H455L462 815V814L464 812V811L465 810V809L467 807V805L468 804V803L469 802V799L470 798V782L469 781V779L468 778V776L467 775V774L466 773V772L465 771V770L463 768V767L459 763V762H458L454 758H453L451 756H450L449 755H448L447 754H445L444 753H442L441 752H437L436 751H426Z" fill="black"/>
<path d="M803 660L802 661H800L799 662H798L796 664H795L794 665V666L792 668V669L791 670V672L790 673V680L791 681V683L792 684V685L798 691H799L800 692H802L803 693H810L811 692H813L814 691H815L821 685V684L822 683V682L823 681V673L822 672V670L821 669V668L819 666V665L818 664H817L815 662H814L813 661H811L810 660H803Z" fill="black"/>
<path d="M687 606L686 607H679L678 608H674L673 609H671L670 610H668L667 611H665L664 612H662L661 613H660L659 614H657L656 615H655L653 617H652L651 618H650L649 619H648L646 621H645L642 624H641L631 634V635L627 639V640L625 642V643L624 644V645L622 647V648L621 649V650L620 651V652L619 653V655L618 656V657L617 658V660L616 661V663L615 664V666L614 667V671L613 672V676L612 677V698L613 699V703L614 704V708L615 709V711L616 712V714L617 715V717L618 718V720L619 721V722L620 723V724L621 725V726L622 727V728L624 730V731L625 732V733L628 736V737L631 740V741L641 751H642L645 754H646L648 756H649L651 758H652L653 759H654L655 760H656L657 761H658L659 762H660L661 763H663L664 764H665L666 765H669L670 766H672L673 767H676L677 768H682L683 769H702L703 768H708L709 767H712L713 766H715L716 765H719L720 764H721L722 763H724L725 762H726L727 761H728L729 760H730L731 759H732L733 758H734L736 756H737L739 754H740L743 751H744L753 742V741L757 737V736L759 734V733L761 731V730L762 729V728L763 727V726L764 725V724L765 723V722L766 721V719L767 718V717L768 716V714L769 713V711L770 710V707L771 706V702L772 701V691L773 690V685L772 684V675L771 674V669L770 668V666L769 665V662L768 661V660L767 659V657L766 656V654L765 653V652L764 651V650L763 649V648L761 646V645L760 644V643L758 641V640L755 637V636L742 623H741L739 621H738L736 619H735L733 617H732L731 616H730L729 615H728L727 614H726L725 613H724L723 612H721L720 611H719L718 610H715L714 609H712L711 608H707L706 607H699L698 606H687Z" fill="black"/>
<path d="M615 522L614 523H613V524L612 525V527L613 528V529L614 530V531L615 532H616L619 535H620L621 536H622L623 537H624L625 538H626L627 539H628L629 540H631L632 541H633L635 543H636L637 544H638L639 545V546L641 548V552L640 553V555L639 556V557L637 559V560L629 568H628L626 570H625L623 572H622L620 574H619L618 575H617L616 576H614L613 577H612L611 578H609L608 579H606L605 580H604L603 581H600L599 582H597L596 583H593L592 584H589L588 585H585L584 586H582L581 587H579L576 590V593L578 595H580L581 596H584L585 597H590L591 598H604L605 599H614L615 598H623L624 597H628L629 596H633L634 595H636L637 594H639L640 593H642L643 592H645L646 591H648L649 590H650L651 589H653L654 588H655L656 587H658L659 586H660L661 585H663L664 584H666L667 583H668L669 582H671L672 581H673L674 580H676L677 579H680L681 578H682L683 577H686L687 576H689L690 575H695L696 574H702L703 573H726L727 574H732L733 575H739L740 576H743L744 577H747L748 578H750L751 579H754L755 580H756L757 581H759L760 582H762L763 583H764L765 584H767L768 585H769L770 586H771L772 587H773L774 588H775L776 589H777L779 591H780L782 593H783L785 595H786L788 597H789L791 599H792L797 604H798L800 606V607H801L804 610V611H805L806 612V613L812 619V620L815 623V624L817 626V627L819 629V630L820 631V632L822 634V635L823 636V637L824 638V640L826 642V644L827 645V646L828 647V649L829 650V652L830 653V656L831 657V659L832 660V664L833 665V669L834 670V680L835 681V693L834 694V704L833 705V710L832 711V715L831 716V719L830 720V723L829 724V726L828 727V729L827 730V732L826 733V735L825 736V737L824 738V740L823 741V742L822 743V745L820 747V749L819 750V751L818 752V753L816 755V756L815 757V758L814 759V760L812 762V763L811 764V765L809 767V768L807 770V771L804 774V775L801 778V779L798 782V783L789 792V793L787 795H788L790 793H791L793 791H794L796 789H797L800 786H801L805 782H806L809 779H810L814 775H815L819 771H820L824 767H825L832 760H833L838 755H839L860 734V733L867 726V725L873 719V718L876 715V714L879 711V710L882 707V706L885 703V702L886 701V700L888 698V697L890 695V694L891 693V692L893 690V689L894 688V687L895 686V685L896 684V683L897 682V681L898 680V679L899 678V677L900 676V674L901 673V672L902 671V670L903 669V667L904 666V664L905 663V661L906 660V658L907 657V654L908 653V650L909 649V644L910 643V633L911 632V627L910 626V616L909 615V610L908 609V606L907 605V602L906 601V599L905 598V596L904 595V594L903 593V592L902 591V590L901 589V588L900 587V586L899 585V584L898 583V582L895 579V578L893 576V575L890 572V571L879 560H878L875 557H874L871 554H870L869 553H868L866 551H865L864 550H863L862 549H861L860 548H859L858 547H857L856 546H855L854 545H853L852 544H851L850 543H849L848 542H846L845 541H843L842 540H840L839 539H838L837 538H834L833 537H831L830 536H827L826 535H823L822 534H817L816 533H812L811 532H806L805 531H799L798 530H788L787 529H740L739 530H729L728 531H721L720 532H714L713 533H706L705 534H697L696 535H686L685 536H671L670 535H663L662 534H658L657 533H654L653 532H650L649 531H647L646 530H643L642 529H641L640 528H638L637 527H636L635 526H633L632 525H631L630 524H628L627 523H625L624 522H615Z" fill="black"/>
<path d="M265 417L264 418H259L258 419H255L254 420H252L251 421H249L248 422H246L245 423H244L243 424H242L241 425H240L239 426H238L236 428H235L233 430H232V431L231 432H230L222 440V441L218 445V446L217 447V448L215 450V451L214 452V453L213 454V455L212 456V457L211 458V460L210 461V463L209 464V467L208 468V472L207 473V493L208 494V498L209 499V502L210 503V505L211 506V507L212 508V510L213 511V512L214 513V514L216 516V517L217 518V519L219 521V522L223 526V527L228 532H229L233 536H234L236 538H237L239 540H240L241 541H242L243 542H244L245 543H246L247 544H249L250 545H251L252 546H254L255 547H259L260 548H264L265 549H280L281 548H285L286 547H290L291 546H293L294 545H296L297 544H298L299 543H301L303 541H304L305 540H306L307 539H308L310 537H311L314 534H315L324 525V524L327 521V520L329 518V517L331 515V514L332 513V512L333 511V509L334 508V507L335 506V504L336 503V500L337 499V495L338 494V487L339 486V481L338 480V473L337 472V467L336 466V464L335 463V461L334 460V459L333 458V456L332 455V454L331 453V452L330 451V450L329 449V448L327 446V445L325 443V442L313 430H312L310 428H309L307 426H306L305 425H304L303 424H302L301 423H300L299 422H297L296 421H295L294 420H291L290 419H288L287 418H282L281 417H265Z" fill="black"/>
<path d="M233 155L232 156H227L226 157H223L222 158H220L219 159H217L216 160H214L213 161H212L211 162H210L209 163H208L207 164H206L204 166H203L201 168H200V169L199 170H198L190 178V179L186 183V184L185 185V186L183 188V189L182 190V191L181 192V193L180 194V195L179 196V198L178 199V201L177 202V205L176 206V210L175 211V231L176 232V236L177 237V240L178 241V243L179 244V245L180 246V248L181 249V250L182 251V252L184 254V255L185 256V257L187 259V260L191 264V265L196 270H197L201 274H202L204 276H205L207 278H208L209 279H210L211 280H212L213 281H214L215 282H217L218 283H219L220 284H222L223 285H227L228 286H232L233 287H248L249 286H253L254 285H258L259 284H261L262 283H264L265 282H266L267 281H269L271 279H272L273 278H274L275 277H276L278 275H279L282 272H283L292 263V262L295 259V258L297 256V255L299 253V252L300 251V250L301 249V247L302 246V245L303 244V242L304 241V238L305 237V233L306 232V225L307 224V219L306 218V211L305 210V205L304 204V202L303 201V199L302 198V197L301 196V194L300 193V192L299 191V190L298 189V188L297 187V186L295 184V183L293 181V180L281 168H280L278 166H277L275 164H274L273 163H272L271 162H270L269 161H268L267 160H265L264 159H263L262 158H259L258 157H256L255 156H250L249 155H233Z" fill="black"/>
<path d="M571 334V336L570 337V339L569 340V342L568 343V345L567 346V350L566 351V355L565 356V361L564 362V365L565 364V361L566 360V358L567 357V353L568 352V348L569 347V343L570 342V338L571 337V334Z" fill="black"/>
<path d="M834 250L833 251H828L827 252H824L823 253H821L820 254H819L818 255H817L816 256H815L814 257H813L811 259H810L800 269V270L798 272V273L797 274V275L796 276V277L795 278V280L794 281V283L793 284V287L792 288V305L793 306V309L794 310V312L795 313V314L796 315V316L797 317V318L798 319V320L799 321V322L801 324V325L810 334H811L813 336H814L815 337H816L817 338H818L819 339H820L821 340H823L824 341H827L828 342H846L847 341H850L851 340H852L853 339H855L856 338H857L858 337H859L861 335H862L864 333H865L873 325V324L875 322V321L877 319V318L878 317V316L879 315V313L880 312V310L881 309V306L882 305V287L881 286V283L880 282V280L879 279V278L878 277V276L877 275V274L876 273V272L875 271V270L872 267V266L868 262H867L864 259H863L861 257H860L858 255H856L855 254H854L853 253H851L850 252H848L847 251H842L841 250H834Z" fill="black"/>
<path d="M94 208L93 209H89L88 210H85L84 211H83L82 212H81L80 213H79L77 215V216L73 220V221L71 223V224L69 226V227L66 230V231L64 233V234L63 235V236L61 238V239L60 240V241L59 242V243L57 245V246L56 247V248L55 249V250L54 251V252L53 253V254L52 255V256L51 257V258L50 259V260L49 261V263L48 264V265L47 266V267L46 268V270L45 271V272L44 273V275L43 276V278L42 279V281L41 282V284L40 285V287L39 288V290L38 291V293L37 294V297L36 298V301L35 302V306L34 307V311L33 312V316L32 317V323L31 324V332L30 333V349L29 350V363L30 364V381L31 382V390L32 391V398L33 399V404L34 405V410L35 411V415L36 416V419L37 420V424L38 425V428L39 429V432L40 433V436L41 437V439L42 440V443L43 444V446L44 447V449L45 450V452L46 453V455L47 456V458L48 459V461L49 462V464L50 465V467L51 468V469L52 470V472L53 473V475L54 476V477L55 478V480L56 481V482L57 483V485L58 486V487L59 488V489L60 490V492L61 493V494L62 495V497L63 498V499L64 500V501L65 502V503L66 504V505L67 506V507L68 508V509L69 510V511L70 512V513L71 514V515L72 516V517L73 518V519L74 520V521L75 522V523L76 524V525L77 526V527L78 528V529L80 531V532L81 533V534L82 535V536L83 537V538L85 540V541L86 542V543L88 545V546L89 547V548L91 550V551L92 552V553L94 555V556L95 557V558L97 560V561L98 562V563L100 565V566L102 568V569L104 571V572L105 573V574L107 576V577L109 579V580L111 582V583L113 585V586L116 589V590L118 592V593L121 596V597L123 599V600L125 602V603L128 606V607L130 609V610L133 613V614L136 617V618L139 621V622L142 625V626L146 630V631L151 636V637L155 641V642L161 648V649L166 654V655L172 661V662L180 670V671L189 680V681L202 694V695L246 739H247L263 755H264L276 767H277L285 775H286L287 776V777H288L296 785H297L302 790H303L309 796H310L315 801H316L321 806H322L326 810H327L332 815H333L337 819H338L343 824H344L348 828H349L354 833H355L358 836H359L363 840H364L367 843H368L372 847H373L376 850H377L381 854H382L385 857H386L389 860H390L393 863H394L397 866H398L400 868H401L404 871H405L408 874H409L412 877H413L416 880H417V879L416 878H415L399 862V861L393 855V854L389 850V849L386 846V845L383 842V841L381 839V838L379 836V835L377 833V832L376 831V830L374 828V827L373 826V825L372 824V823L371 822V821L370 820V819L369 818V817L368 816V815L367 814V813L366 812V810L365 809V808L364 807V805L363 804V802L362 801V799L361 798V795L360 794V791L359 790V786L358 785V780L357 779V752L358 751V746L359 745V741L360 740V737L361 736V734L362 733V731L363 730V728L364 727V725L365 724V723L366 722V720L367 719V718L368 717V716L369 715V714L371 712V711L372 710V709L373 708V707L375 705V704L378 701V700L380 698V697L385 692V691L398 678H399L403 674H404L407 671H408L411 668H412L414 666H415L416 665H417L419 663H420L421 662H422L423 661H424L425 660H426L427 659H428L429 658H430L431 657H432L433 656H434L435 655H437L438 654H439L440 653H442L443 652H445L446 651H448L449 650H451L452 649H454L455 648H457L458 647H461L462 646H465L466 645H468L469 644H472L473 643H476L477 642H479L480 641H482L483 640H485L486 639H489L490 638H491L492 637H494L495 636H497L498 635H499L500 634H502L503 633H504L505 632H506L507 631H508L509 630H510L511 629H512L513 628H514L515 627H516L517 626H518L520 624H521L522 623H523L525 621H526L528 619H529L531 617H532L534 615H535L537 613H538L542 609H543L549 603H550L556 597V596L558 594V590L556 588H555L554 587H551L550 588H548L547 589H545L544 590H543L542 591H541L540 592H538L537 593H536L535 594H534L533 595H532L531 596H530L529 597H527L526 598H524L523 599H522L521 600H518L517 601H515L514 602H510L509 603H505L504 604H486L485 603H481L480 602H478L477 601H476L475 600H474L473 599H472L467 594V593L466 592V587L467 586V584L469 582V581L470 580V579L472 577V576L473 575V574L475 572V571L477 569V568L478 567V566L479 565V563L480 562V560L481 559V552L479 550H474L473 551H472L471 552H470L464 558V559L461 562V563L456 568V569L450 575V576L436 590H435L430 595H429L426 598H425L423 600H422L420 602H419L418 603H417L416 604H415L414 605H413L412 606H411L410 607H409L408 608H406L405 609H403L402 610H399L398 611H396L395 612H392L391 613H386L385 614H374L373 615H358L357 614H344L343 613H337L336 612H330L329 611H325L324 610H321L320 609H317L316 608H313L312 607H310L309 606H306L305 605H303L302 604H300L299 603H297L296 602H294L293 601H292L291 600H289L288 599H287L286 598H284L283 597H282L281 596H279L278 595H277L276 594H275L274 593H273L272 592H271L270 591H269L268 590H267L266 589H265L264 588H263L261 586H260L259 585H258L257 584H256L255 583H254L252 581H251L250 580H249L247 578H246L244 576H243L241 574H240L238 572H237L233 568H232L229 565H228L223 560H222L203 541V540L198 535V534L194 530V529L192 527V526L190 524V523L188 521V520L187 519V518L185 516V515L183 513V511L181 509V508L180 507V506L179 505V504L178 503V502L177 501V500L176 499V498L175 497V495L174 494V493L173 492V490L172 489V488L171 487V484L170 483V481L169 480V478L168 477V474L167 473V470L166 469V467L165 466V461L164 460V456L163 455V448L162 447V439L161 438V415L162 414L161 413L162 412V403L163 402V396L164 395V391L165 390V385L166 384V382L167 381V378L168 377V374L169 373V371L170 370V368L171 367V364L172 363V361L173 360V359L174 358V357L175 356V354L176 353V352L177 351V350L178 349V348L179 347V346L180 345V344L181 343V342L182 341V340L183 339V338L184 337V336L185 335V334L187 332V331L188 330V329L190 327V326L191 325V324L192 323V316L191 315V304L190 303V298L189 297V292L188 291V288L187 287V284L186 283V280L185 279V277L184 276V274L183 273V271L182 270V269L181 268V267L180 266V265L179 264V262L177 260V259L176 258V257L175 256V255L174 254V253L173 252V251L171 249V248L168 245V244L165 241V240L152 227H151L148 224H147L145 222H144L142 220H141L139 218H138L137 217H136L135 216H134L133 215H131L130 214H129L128 213H126L125 212H123L122 211H120L119 210H116L115 209H111L110 208H94Z" fill="black"/>
<path d="M457 205L456 206H454L453 207H452L451 208H450L449 209H448L446 211H445L437 219V220L435 222V223L434 224V225L433 226V227L432 228V230L431 231V235L430 236V247L431 248V251L432 252V255L433 256V258L434 259V260L436 262H437L438 263H439L440 264H441L442 265H443L444 266H445L447 268H448L449 269H450L451 270H452L454 272H455L456 273H457L459 275H460L461 276H462L464 278H465L467 280H468L470 282H471L474 285H475L480 290H481L485 294H486L505 313V314L511 320V321L515 325V326L518 329V330L520 332V333L523 336V337L524 338V339L526 341V342L528 344V345L530 347V348L531 349V350L533 352V353L534 354V355L535 356V357L536 358V359L537 360V361L538 362V363L539 364V365L540 366V365L539 364V360L538 359V356L537 355V351L536 350V346L535 345V342L534 341V338L533 337V334L532 333V330L531 329V327L530 326V323L529 322V320L528 319V317L527 316V314L526 313V311L525 310V308L524 307V305L523 304V303L522 302V300L521 299V298L520 297V295L519 294V293L518 292V290L517 289V288L516 287V286L515 285V284L514 283V282L513 281V279L511 277V276L510 275V274L509 273V272L508 271V270L507 269V268L506 267V266L505 265V264L504 263V262L502 260V259L501 258V257L499 255V254L498 253V252L496 250V249L494 247V246L492 244V243L489 240V239L487 237V236L483 232V231L478 226V225L472 219V218L459 205H457Z" fill="black"/>
<path d="M499 201V202L500 203V205L501 206V208L502 209V210L503 211V213L504 214V215L505 216V217L506 218V219L507 220V221L508 222V223L510 225V226L513 229V230L520 237H521L524 240H525L527 242H528L529 243H530L531 244H533L534 245H535L536 246H540L541 247H555L556 246H560L561 245H563L564 244H565L566 243H567L568 242H569L570 241H571L573 239H574L577 236H578L584 230V229L586 227V226L588 224V223L590 221V220L591 219V218L592 217V216L593 215V214L594 213V211L595 210V209L596 208V206L597 205V203L598 202V201L595 204V205L593 207H592L588 211H587L586 212H585L583 214H582L581 215H579L578 216H577L576 217H575L574 218H572L571 219H569L568 220H565L564 221H560L559 222H537L536 221H532L531 220H528L527 219H525L524 218H522L521 217H520L519 216H518L517 215H516L515 214H514L513 213H512L510 211H509L500 202V201H499Z" fill="black"/>
<path d="M374 165L373 166H371L370 167H368L367 168H366L365 169H364L363 170H362L360 172H359L353 178V179L351 181V182L349 184V185L348 186V188L347 189V191L346 192V195L345 196V208L346 209V212L347 213V215L348 216V217L349 218V219L350 220V221L351 222V223L354 226V227L357 230H358L361 233H362L363 234H364L365 235H366L367 236H368L369 237H371L372 238H376L377 239H386L387 238H391L392 237H394L395 236H396L397 235H399L401 233H402L404 231H405L411 225V224L413 222V221L414 220V219L415 218V217L416 216V215L417 214V212L418 211V208L419 207V195L418 194V191L417 190V188L416 187V186L415 185V184L414 183V182L412 180V179L404 171H403L401 169H400L399 168H397L396 167H395L394 166H391L390 165H374Z" fill="black"/>
<path d="M543 155L542 156H539L538 157H537L536 158H535L534 159H533L531 161H530L527 164V165L524 168V169L523 170V172L522 173V175L521 176V190L522 191V193L523 194V195L524 196V197L525 198V199L532 206H533L535 208H536L537 209H539L540 210H542L543 211H554L555 210H558L559 209H560L561 208H562L564 206H565L572 199V198L573 197V196L574 195V193L575 192V189L576 188V179L575 178V175L574 174V172L573 171V170L571 168V167L564 160H563L561 158H560L559 157H557L556 156H553L552 155H543Z" fill="black"/>
<path d="M807 130L806 131H797L796 132H790L789 133H783L782 134H778L777 135H773L772 136H769L768 137H765L764 138H761L760 139H757L756 140H754L753 141H751L750 142H748L747 143H745L744 144H742L741 145H739L738 146H737L736 147H734L733 148H732L731 149H729L728 150H727L726 151H724L723 152H722L721 153H720L719 154H718L717 155H716L715 156H714L713 157H712L711 158H710L709 159H708L707 160H706L705 161H704L703 162H702L700 164H699L697 166H696L695 167H694L692 169H691L689 171H688L686 173H685L683 175H682L680 177H679L676 180H675L672 183H671L668 186H667L662 191H661L654 198H653L640 211V212L631 221V222L626 227V228L623 231V232L619 236V237L616 240V241L613 244V245L611 247V248L609 250V251L607 253V254L605 256V257L604 258V259L602 261V262L600 264V265L599 266V267L597 269V270L596 271V272L595 273V274L594 275V276L593 277V278L591 280V281L590 282V283L589 284V285L588 286V287L587 288V289L586 290V291L585 292V294L584 295V296L583 297V298L582 299V301L581 302V303L580 304V306L579 307V308L578 309V311L577 312V315L576 316V319L575 320V325L574 326V332L575 333V335L577 337H581L586 332V331L588 329V328L589 327V326L590 325V324L591 323V322L593 320V319L594 318V317L596 315V314L599 311V310L606 303H607L610 300H611L613 298H614L616 296H617L618 295H619L620 294H622L623 293H625L626 292H630L631 291H633L634 292H637L638 293H639L641 295V296L642 297V298L643 299V302L644 303V318L645 319V324L646 325V327L648 329V330L649 331H654L657 328V326L658 325V323L659 322V296L660 295V288L661 287V283L662 282V278L663 277V275L664 274V272L665 271V270L666 269V267L667 266V265L668 264V263L669 262V261L670 260V259L672 257V256L674 254V253L682 245V244L683 243H684L692 235H693L696 232H697L699 230H700L702 228H703L705 226H706L707 225H708L710 223H712L714 221H715L716 220H718L719 219H720L721 218H722L723 217H725L726 216H728L729 215H731L732 214H734L735 213H738L739 212H742L743 211H747L748 210H751L752 209H757L758 208H764L765 207H775L776 206H795L796 207H806L807 208H813L814 209H819L820 210H824L825 211H828L829 212H832L833 213H836L837 214H839L840 215H842L843 216H845L846 217H847L848 218H850L851 219H852L853 220H855L856 221H857L858 222H859L860 223H861L862 224H863L864 225H865L866 226H867L868 227H869L871 229H872L873 230H874L876 232H877L879 234H880L882 236H883L886 239H887L891 243H892L908 259V260L912 264V265L915 268V269L917 271V272L919 274V275L921 277V278L923 280V281L924 282V283L925 284V285L926 286V287L927 288V289L928 290V292L929 293V294L930 295V296L931 297V299L932 300V302L933 303V305L934 306V308L935 309V312L936 313V316L937 317V320L938 321V326L939 327V335L940 336V357L939 358V365L938 366V372L937 373V376L936 377V381L935 382V385L934 386V388L933 389V391L932 392V394L931 395V397L930 398V399L929 400V402L928 403V404L927 405V407L926 408V409L925 410V411L924 412V413L923 414V415L922 416V417L920 419V420L919 421V422L917 424V425L915 427V428L913 430V431L911 433V434L907 438V439L902 444V445L888 459H887L882 464H881L877 468H876L873 471H872L869 474H868L866 476H865L863 478H862L860 480H859L858 481H857L855 483H854L853 484H852L851 485H850L848 487H847L846 488H845L844 489H843L842 490H841L840 491H839L838 492H836L835 493H838L839 492H841L842 491H844L845 490H847L848 489H850L851 488H853L854 487H857L858 486H859L860 485H862L863 484H864L865 483H867L868 482H869L870 481H871L872 480H874L875 479H876L877 478H878L879 477H880L881 476H882L883 475H884L885 474H886L887 473H888L889 472H890L891 471H892L893 470H894L895 469H896L897 468H898L900 466H901L902 465H903L904 464H905L907 462H908L910 460H911L913 458H914L916 456H917L918 455H919L921 453H922L925 450H926L929 447H930L933 444H934L937 441H938L943 436H944L951 429H952L969 412V411L975 405V404L980 399V398L983 395V394L987 390V389L989 387V386L991 384V383L993 381V380L995 378V377L996 376V375L998 373V372L999 371V370L1000 369V368L1001 367V366L1003 364V363L1004 362V361L1005 360V359L1006 358V357L1007 356V354L1008 353V352L1009 351V350L1010 349V347L1011 346V345L1012 344V342L1013 341V340L1014 339V337L1015 336V334L1016 333V331L1017 330V327L1018 326V323L1019 322V319L1020 318V315L1021 314V309L1022 308V302L1023 301V270L1022 269V263L1021 262V257L1020 256V253L1019 252V249L1018 248V246L1017 245V243L1016 242V240L1015 239V238L1014 237V235L1013 234V233L1012 232V231L1011 230V229L1010 228V227L1009 226V225L1008 224V223L1007 222V221L1005 219V218L1004 217V216L1002 214V213L1000 211V210L998 208V207L995 204V203L989 197V196L974 181H973L967 175H966L964 173H963L960 170H959L956 167H955L954 166H953L951 164H950L949 163H948L946 161H945L943 159H942L941 158H940L939 157H938L937 156H936L935 155H934L933 154H932L931 153H930L929 152H928L927 151H926L925 150H924L923 149H921L920 148H919L918 147H916L915 146H914L913 145H911L910 144H908L907 143H905L904 142H902L901 141H899L898 140H896L895 139H892L891 138H888L887 137H884L883 136H879L878 135H873L872 134H867L866 133H860L859 132H852L851 131H842L841 130H807Z" fill="black"/>
</svg>
