<svg width="88" height="67" viewBox="0 0 88 67" fill="none" xmlns="http://www.w3.org/2000/svg">
<path d="M6 66.9999H20V32.9999L0 17.9999V60.9999C0 64.3199 2.69 66.9999 6 66.9999Z" fill="#4285F4"/>
<path d="M68 66.9999H82C85.32 66.9999 88 64.3099 88 60.9999V17.9999L68 32.9999" fill="#34A853"/>
<path d="M68 6.99993V32.9999L88 17.9999V9.99993C88 2.57993 79.53 -1.65007 73.6 2.79993" fill="#FBBC04"/>
<path d="M20 32.9999V6.99993L44 24.9999L68 6.99993V32.9999L44 50.9999" fill="#EA4335"/>
<path d="M0 9.99993V17.9999L20 32.9999V6.99993L14.4 2.79993C8.46 -1.65007 0 2.57993 0 9.99993Z" fill="#C5221F"/>
</svg>
